<svg width="19" height="19" viewBox="0 0 19 19" fill="none" xmlns="http://www.w3.org/2000/svg">
<path d="M2.75 0C2.02065 0 1.32118 0.289731 0.805456 0.805456C0.289731 1.32118 0 2.02065 0 2.75V5.75C0 6.47935 0.289731 7.17882 0.805456 7.69454C1.32118 8.21027 2.02065 8.5 2.75 8.5H5.75C6.47935 8.5 7.17882 8.21027 7.69454 7.69454C8.21027 7.17882 8.5 6.47935 8.5 5.75V2.75C8.5 2.02065 8.21027 1.32118 7.69454 0.805456C7.17882 0.289731 6.47935 0 5.75 0H2.75ZM1.5 2.75C1.5 2.06 2.06 1.5 2.75 1.5H5.75C6.44 1.5 7 2.06 7 2.75V5.75C7 6.44 6.44 7 5.75 7H2.75C2.06 7 1.5 6.44 1.5 5.75V2.75ZM2.75 10C2.02065 10 1.32118 10.2897 0.805456 10.8055C0.289731 11.3212 0 12.0207 0 12.75V15.75C0 16.4793 0.289731 17.1788 0.805456 17.6945C1.32118 18.2103 2.02065 18.5 2.75 18.5H5.75C6.47935 18.5 7.17882 18.2103 7.69454 17.6945C8.21027 17.1788 8.5 16.4793 8.5 15.75V12.75C8.5 12.0207 8.21027 11.3212 7.69454 10.8055C7.17882 10.2897 6.47935 10 5.75 10H2.75ZM1.5 12.75C1.5 12.06 2.06 11.5 2.75 11.5H5.75C6.44 11.5 7 12.06 7 12.75V15.75C7 16.44 6.44 17 5.75 17H2.75C2.06 17 1.5 16.44 1.5 15.75V12.75ZM10 2.75C10 2.02065 10.2897 1.32118 10.8055 0.805456C11.3212 0.289731 12.0207 0 12.75 0H15.75C16.4793 0 17.1788 0.289731 17.6945 0.805456C18.2103 1.32118 18.5 2.02065 18.5 2.75V5.75C18.5 6.47935 18.2103 7.17882 17.6945 7.69454C17.1788 8.21027 16.4793 8.5 15.75 8.5H12.75C12.0207 8.5 11.3212 8.21027 10.8055 7.69454C10.2897 7.17882 10 6.47935 10 5.75V2.75ZM12.75 1.5C12.06 1.5 11.5 2.06 11.5 2.75V5.75C11.5 6.44 12.06 7 12.75 7H15.75C16.44 7 17 6.44 17 5.75V2.75C17 2.06 16.44 1.5 15.75 1.5H12.75ZM12.75 10C12.0207 10 11.3212 10.2897 10.8055 10.8055C10.2897 11.3212 10 12.0207 10 12.75V15.75C10 16.4793 10.2897 17.1788 10.8055 17.6945C11.3212 18.2103 12.0207 18.5 12.75 18.5H15.75C16.4793 18.5 17.1788 18.2103 17.6945 17.6945C18.2103 17.1788 18.5 16.4793 18.5 15.75V12.75C18.5 12.0207 18.2103 11.3212 17.6945 10.8055C17.1788 10.2897 16.4793 10 15.75 10H12.75ZM11.5 12.75C11.5 12.06 12.06 11.5 12.75 11.5H15.75C16.44 11.5 17 12.06 17 12.75V15.75C17 16.44 16.44 17 15.75 17H12.75C12.06 17 11.5 16.44 11.5 15.75V12.75Z" fill="#9E9E9E"/>
</svg>
