<svg width="20" height="22" viewBox="0 0 20 22" fill="none" xmlns="http://www.w3.org/2000/svg">
<path d="M11.26 19.7657L16.72 16.6137C17.304 16.2767 17.595 16.1087 17.807 15.8737C17.9946 15.6655 18.1363 15.4202 18.223 15.1537C18.32 14.8527 18.32 14.5167 18.32 13.8467V7.53274C18.32 6.86274 18.32 6.52674 18.222 6.22574C18.1353 5.95925 17.9936 5.71395 17.806 5.50574C17.596 5.27174 17.306 5.10374 16.727 4.76974L11.26 1.61374C10.677 1.27674 10.386 1.10874 10.076 1.04374C9.80173 0.985419 9.51827 0.985419 9.244 1.04374C8.934 1.10874 8.643 1.27674 8.06 1.61374L2.598 4.76674C2.016 5.10274 1.725 5.27074 1.514 5.50574C1.32642 5.71395 1.18469 5.95925 1.098 6.22574C1 6.52774 1 6.86374 1 7.53674V13.8417C1 14.5147 1 14.8517 1.098 15.1527C1.18469 15.4192 1.32642 15.6645 1.514 15.8727C1.725 16.1087 2.017 16.2767 2.599 16.6127L8.059 19.7657C8.643 20.1027 8.934 20.2707 9.244 20.3357C9.518 20.3947 9.802 20.3947 10.076 20.3357C10.386 20.2707 10.677 20.1027 11.26 19.7657Z" stroke="#9E9E9E" stroke-width="2" stroke-linecap="round" stroke-linejoin="round"/>
<path d="M6.66016 10.6897C6.66016 11.4853 6.97623 12.2484 7.53884 12.811C8.10144 13.3736 8.86451 13.6897 9.66016 13.6897C10.4558 13.6897 11.2189 13.3736 11.7815 12.811C12.3441 12.2484 12.6602 11.4853 12.6602 10.6897C12.6602 9.89405 12.3441 9.13099 11.7815 8.56838C11.2189 8.00577 10.4558 7.6897 9.66016 7.6897C8.86451 7.6897 8.10144 8.00577 7.53884 8.56838C6.97623 9.13099 6.66016 9.89405 6.66016 10.6897Z" stroke="#9E9E9E" stroke-width="2" stroke-linecap="round" stroke-linejoin="round"/>
</svg>
