<svg width="21" height="21" viewBox="0 0 21 21" fill="none" xmlns="http://www.w3.org/2000/svg">
<path d="M1 7.75556C1 5.39111 1 4.20889 1.46022 3.30533C1.86501 2.51091 2.51091 1.86501 3.30533 1.46022C4.20889 1 5.39111 1 7.75556 1H13.2444C15.6089 1 16.7911 1 17.6947 1.46022C18.4891 1.86501 19.135 2.51091 19.5398 3.30533C20 4.20889 20 5.39111 20 7.75556V13.2444C20 15.6089 20 16.7911 19.5398 17.6947C19.135 18.4891 18.4891 19.135 17.6947 19.5398C16.7911 20 15.6089 20 13.2444 20H7.75556C5.39111 20 4.20889 20 3.30533 19.5398C2.51091 19.135 1.86501 18.4891 1.46022 17.6947C1 16.7911 1 15.6089 1 13.2444V7.75556Z" stroke="#9E9E9E" stroke-width="2" stroke-linecap="round" stroke-linejoin="round"/>
<path d="M14.7223 8.38892L11.0278 12.0834L8.91672 9.97225L6.27783 12.6111" stroke="#9E9E9E" stroke-width="2" stroke-linecap="round" stroke-linejoin="round"/>
</svg>
