<svg width="31" height="19" viewBox="0 0 31 19" fill="none" xmlns="http://www.w3.org/2000/svg">
<path fill-rule="evenodd" clip-rule="evenodd" d="M30.1088 9.04167C30.1088 6.64367 29.1561 4.34388 27.4605 2.64824C25.7649 0.952601 23.4651 0 21.0671 0H9.04167C6.64367 3.5733e-08 4.34388 0.952601 2.64824 2.64824C0.952602 4.34388 0 6.64367 0 9.04167C0 11.4397 0.952602 13.7394 2.64824 15.4351C4.34388 17.1307 6.64367 18.0833 9.04167 18.0833H21.0671C23.4651 18.0833 25.7649 17.1307 27.4605 15.4351C29.1561 13.7394 30.1088 11.4397 30.1088 9.04167ZM21.1562 3.35575C21.9028 3.35575 22.6421 3.5028 23.3319 3.78852C24.0216 4.07423 24.6484 4.493 25.1763 5.02093C25.7042 5.54885 26.123 6.17559 26.4087 6.86536C26.6944 7.55513 26.8415 8.29442 26.8415 9.04102C26.8415 9.78762 26.6944 10.5269 26.4087 11.2167C26.123 11.9064 25.7042 12.5332 25.1763 13.0611C24.6484 13.589 24.0216 14.0078 23.3319 14.2935C22.6421 14.5792 21.9028 14.7263 21.1562 14.7263C19.6484 14.7263 18.2023 14.1273 17.1361 13.0611C16.0699 11.9949 15.4709 10.5488 15.4709 9.04102C15.4709 7.53319 16.0699 6.08712 17.1361 5.02093C18.2023 3.95473 19.6484 3.35575 21.1562 3.35575Z" fill="#1F4E20"/>
</svg>
