<svg width="16" height="16" viewBox="0 0 16 16" fill="none" xmlns="http://www.w3.org/2000/svg">
<g clip-path="url(#clip0_45_1956)">
<path d="M14.9713 8.67236C14.9713 8.67236 15.1851 7.04111 14.7963 6.30361C14.4076 5.56611 13.2076 3.93736 10.7188 3.64361C9.39883 3.48861 8.50508 3.66361 7.69008 3.75986C7.17383 3.82111 6.21258 3.50361 4.48633 3.89611C3.20633 4.18736 1.26383 5.31361 0.632576 7.74111C0.300076 9.01986 0.426326 10.4011 0.992576 11.5649C2.08008 13.7974 4.09883 14.3411 4.09883 14.3411L8.15633 14.6711L13.0688 12.5936L14.9713 8.67236Z" fill="white"/>
<path d="M10.2536 14.885C12.8361 14.38 15.0686 12.07 15.4574 9.62377C15.8211 7.33502 14.4836 5.80127 14.4836 5.80127C14.4836 5.80127 14.6361 7.02252 14.3511 8.32377C14.0449 9.71627 13.1586 12.0375 10.3511 13.3525C6.90488 14.9663 3.12988 13.9025 3.12988 13.9025C3.12988 13.9025 5.69488 15.7763 10.2536 14.885Z" fill="white"/>
<path d="M3.11495 6.59486C2.4287 6.41736 1.57245 6.93611 1.4487 8.45486C1.33495 9.84611 2.0887 11.5224 2.82745 11.3224C3.45495 11.1524 2.8512 9.98986 3.07495 9.03611C3.3012 8.08236 4.1612 6.86611 3.11495 6.59486Z" fill="white"/>
<path d="M3.98369 5.75611C3.88619 5.88236 4.11244 6.43736 5.26119 6.42986C6.40869 6.42236 6.60119 6.07611 7.11244 6.23111C7.62369 6.38611 8.02244 7.00111 8.58744 7.33736C9.37744 7.80736 10.5174 7.68736 10.5099 7.47861C10.5024 7.26861 10.2237 7.37611 9.98369 7.08236C9.74369 6.78736 9.31869 6.00861 9.31869 6.00861C9.31869 6.00861 9.43744 5.64361 9.68869 5.65736C10.2687 5.68861 10.9137 5.57361 11.2687 5.35111C11.6937 5.08611 11.8537 4.67736 11.7762 4.58361C11.6987 4.49111 11.4574 4.74111 11.3262 4.71736C11.1949 4.69361 10.3412 4.70986 10.3412 4.70986L9.30994 4.54236C9.30994 4.54236 9.45119 3.93861 9.72994 3.62861C10.0087 3.31861 10.4462 2.89236 10.4374 2.83861C10.4287 2.78486 10.0774 2.83236 10.0774 2.83236L8.99119 3.32861L8.23119 4.32861L6.78869 4.51486L5.39994 3.58361C5.39994 3.58361 4.60369 2.94111 4.56744 2.95611C4.36619 3.03861 4.67244 3.34486 4.90369 3.71486C5.10369 4.03611 5.14494 4.19736 5.41494 4.42111C5.67869 4.63861 6.12119 4.85486 6.12119 4.85486L5.80369 5.42861C5.80369 5.42861 4.77994 5.83236 4.60119 5.83236C4.42369 5.83361 4.03744 5.68736 3.98369 5.75611Z" fill="white"/>
<path d="M7.18878 5.40995C7.60753 5.4412 7.91003 5.99745 8.28753 6.3762C8.83878 6.92745 9.27003 7.21495 9.73378 7.3237C9.96628 7.37745 10.5 7.4662 10.5 7.4662C10.5 7.4662 10.5775 7.41245 10.3138 7.26495C10.05 7.11745 9.89128 6.83495 9.85253 6.7037C9.81378 6.57245 9.69253 6.1412 9.43753 5.7837C9.18253 5.4262 8.89253 5.27495 8.98503 5.11245C9.07753 4.94995 9.87753 5.22495 10.6475 5.1012C11.6638 4.9387 11.8188 4.61245 11.7725 4.5737C11.7263 4.53495 11.0975 4.7212 10.78 4.6512C10.4625 4.5812 10.19 4.3637 9.71003 4.3637C9.38253 4.3637 9.06253 4.48245 8.97628 4.3037C8.90378 4.1537 9.17628 3.65245 9.38378 3.4637C9.88753 3.0062 10.4313 2.89745 10.4313 2.83495C10.4313 2.7062 9.54753 2.6337 8.93503 3.12245C8.32503 3.6087 8.44003 4.24745 7.64753 4.24745C7.38378 4.24745 7.28253 4.18495 7.28253 4.18495C7.28253 4.18495 6.92878 3.8937 6.45628 3.63745C5.98378 3.3812 5.62753 3.49495 5.35503 3.3637C5.08378 3.23245 4.60253 2.89245 4.55628 2.9612C4.51003 3.02995 4.91753 3.49495 5.43003 3.87495C5.94253 4.25495 6.51628 4.4487 6.35253 4.6037C6.19003 4.7587 5.91878 4.85995 5.66253 5.0537C5.40628 5.24745 5.18128 5.5262 4.87128 5.62745C4.56128 5.7287 4.05128 5.65745 3.98128 5.74245C3.91128 5.82745 4.52128 6.1212 5.47503 5.9437C6.42628 5.7662 6.42878 5.3537 7.18878 5.40995Z" fill="white"/>
<path d="M8.14007 0.617624C7.93132 0.607624 7.66757 0.772624 7.66757 0.772624C7.66757 0.772624 7.28507 1.23887 7.13382 2.39637C7.06382 2.93137 7.14007 3.65012 7.12507 4.04637C7.11007 4.44137 7.02382 4.58887 7.04757 4.79137C7.07132 4.99262 7.28257 5.22012 7.77132 5.21512C8.16382 5.21137 8.36632 4.90762 8.35882 4.79887C8.35132 4.69012 8.01507 3.58137 8.11007 2.60387C8.19882 1.69512 8.53007 1.06762 8.54382 0.936374C8.55132 0.865124 8.45757 0.632624 8.14007 0.617624Z" fill="white"/>
</g>
<defs>
<clipPath id="clip0_45_1956">
<rect width="16" height="16" fill="white"/>
</clipPath>
</defs>
</svg>
