<svg width="15" height="15" viewBox="0 0 15 15" fill="none" xmlns="http://www.w3.org/2000/svg">
<path d="M6.375 7.08333H4.83083C5.3975 7.4375 5.91458 7.84125 6.375 8.27333V7.08333ZM3.54167 6.375C3.73292 2.74833 5.22042 0 7.08333 0C8.9675 0 10.4621 2.79083 10.625 6.46C11.6875 5.97125 12.8704 5.66667 14.1667 5.66667C10.0938 7.48708 11.5104 14.1667 7.08333 14.1667C2.83333 14.1667 4.20042 7.48708 0 5.66667C1.28917 5.66667 2.47917 5.95 3.54167 6.375ZM6.375 6.375V4.95833H4.42L4.27125 6.375H6.375ZM6.375 4.25V2.83333H4.99375C4.81667 3.25833 4.675 3.73292 4.55458 4.25H6.375ZM6.375 2.125V0.920833C5.98542 1.15458 5.63125 1.5725 5.3125 2.125H6.375ZM7.08333 0.708333V2.125H7.79167V2.83333H7.08333V4.25H8.5V4.95833H7.08333V6.375H9.20833V7.08333H7.08333V8.5H8.5V9.20833H7.24625C8.08917 10.2354 8.60625 11.3333 8.72667 12.2046C9.42792 11.0217 9.88833 9.095 9.91667 6.91333C9.87417 3.54167 8.59208 0.708333 7.08333 0.708333Z" fill="white"/>
</svg>
