<svg width="15" height="15" viewBox="0 0 15 15" fill="none" xmlns="http://www.w3.org/2000/svg">
<g clip-path="url(#clip0_51_1049)">
<g clip-path="url(#clip1_51_1049)">
<path d="M0.311497 9.76555C0.112747 7.67805 1.30275 6.0218 2.3115 5.3543C3.34275 4.6718 3.824 4.5743 4.0565 4.44305C5.12775 3.84055 5.8815 2.4968 7.3215 1.50555C8.96025 0.378054 11.2015 0.210554 12.5765 0.964304C13.8302 1.6518 15.1152 3.1493 14.7715 6.13055C14.4277 9.1118 6.93775 14.0181 5.65275 14.0881C4.36775 14.1581 0.611497 12.9206 0.311497 9.76555Z" fill="white"/>
<path d="M8.66148 9.09953C8.07273 9.44453 5.86148 11.6358 3.32398 11.5758C0.786484 11.5158 0.396484 10.2895 0.396484 10.2895C0.396484 10.2895 0.760234 12.427 2.51023 13.6933C4.49023 15.1258 6.59023 14.562 7.20273 14.4245C8.11148 14.2208 8.91398 13.8033 9.71773 13.367C10.5215 12.9308 13.379 11.5545 14.5015 9.38828C15.7402 6.99828 15.4452 5.08328 14.8265 3.69078C14.1715 2.21703 13.5327 1.67578 13.5327 1.67578C13.5327 1.67578 14.1277 4.76203 12.8677 6.47953C11.0802 8.91578 9.25023 8.75453 8.66148 9.09953Z" fill="white"/>
<path d="M7.7353 11.6597C7.7428 11.8172 8.30405 11.8047 8.71155 11.7384C9.1428 11.6684 9.49905 11.6622 9.55905 11.4959C9.61905 11.3297 8.96155 10.7509 8.57405 10.7709C8.33155 10.7847 7.72405 11.4297 7.7353 11.6597ZM10.6553 11.9634C10.739 12.0847 11.0865 11.8997 11.214 11.7334C11.3415 11.5672 11.4853 11.2459 11.3703 11.1747C11.2553 11.1034 10.9265 11.1047 10.764 11.3047C10.6028 11.5059 10.5715 11.8422 10.6553 11.9634ZM14.4878 4.29842C14.3515 4.05842 14.1078 4.62592 14.0965 4.82217C14.0853 5.01842 14.2328 5.13342 14.3965 5.16842C14.5578 5.20217 14.9253 5.06967 14.4878 4.29842ZM3.46655 12.8984C3.35655 13.0847 3.5378 13.2197 3.72155 13.3447C3.86655 13.4434 4.22155 13.4959 4.29155 13.3859C4.3628 13.2759 4.2228 13.1272 3.9578 12.9047C3.77655 12.7534 3.57655 12.7122 3.46655 12.8984Z" fill="#9E9E9E"/>
<path d="M2.00673 10.043C1.85048 10.1517 1.97673 10.6342 1.99798 10.7267C2.01923 10.8192 2.64173 10.8517 2.73423 10.7092C2.82673 10.5667 2.63173 10.3605 2.49423 10.2167C2.35673 10.0742 2.16298 9.9342 2.00673 10.043ZM3.11923 8.9192C3.31173 9.18045 3.66048 8.8667 3.71673 8.63295C3.77673 8.3817 3.56548 8.21796 3.32673 8.3667C3.13548 8.4842 3.00673 8.76795 3.11923 8.9192ZM5.60923 3.94545C5.35923 3.84045 5.26423 4.06045 5.17048 4.28295C5.07673 4.50545 4.77423 4.91045 4.96423 4.9667C5.15423 5.02295 5.60173 4.9967 5.71298 4.81545C5.82423 4.63295 5.85923 4.0517 5.60923 3.94545Z" fill="#9E9E9E"/>
<path d="M1.34022 9.44795C1.61522 9.5717 2.04272 8.9867 2.23897 8.70545C2.52772 8.2917 2.96272 7.7692 3.98147 7.13795C5.37897 6.27295 6.83772 6.49045 7.58772 5.8392C8.33772 5.18795 8.77272 3.8967 9.34522 3.2567C10.3915 2.0867 11.4777 2.88545 11.629 2.3192C11.7802 1.75295 11.0052 1.2717 10.0902 1.27295C9.17647 1.27545 8.13147 1.6117 7.18147 3.14795C6.23147 4.6842 5.99522 5.1542 5.11397 5.4317C4.23272 5.71045 3.13772 6.07795 2.08272 7.2517C1.49647 7.9042 0.881466 9.2417 1.34022 9.44795Z" fill="white"/>
<path d="M10.1776 3.74084C10.2313 4.14084 10.7813 4.35834 11.1051 4.36209C11.4088 4.36584 11.6276 4.16834 11.6238 3.96709C11.6201 3.72584 11.2276 3.61459 11.0738 3.55459C10.7726 3.43834 10.7026 3.18584 10.4213 3.27584C10.1663 3.35834 10.1701 3.67959 10.1776 3.74084Z" fill="#9E9E9E"/>
</g>
</g>
<defs>
<clipPath id="clip0_51_1049">
<rect width="15" height="15" fill="white"/>
</clipPath>
<clipPath id="clip1_51_1049">
<rect width="16" height="16" fill="white" transform="translate(-0.168457 -0.486816)"/>
</clipPath>
</defs>
</svg>
