<svg width="16" height="16" viewBox="0 0 16 16" fill="none" xmlns="http://www.w3.org/2000/svg">
<g clip-path="url(#clip0_125_30936)">
<path d="M6.48755 12.5276L5.2463 10.0801C5.2463 10.0801 5.0363 8.7038 5.1763 6.8813C5.2988 5.2913 5.60755 4.17255 6.4338 3.1763C7.07505 2.4038 8.09505 1.62005 9.1088 1.25255C10.1225 0.885052 10.2275 0.867552 10.2275 0.990052C10.2275 1.11255 8.63755 1.8313 7.5363 3.3688C6.43505 4.9063 6.48755 6.37505 6.41755 7.3363C6.34755 8.29755 6.48755 12.5276 6.48755 12.5276Z" fill="white"/>
<path d="M2.43246 6.02604C3.09996 7.22229 3.73371 9.45604 4.46496 11.141C5.14621 12.7135 5.85871 13.926 6.48746 14.5198C7.11621 15.1135 7.68996 15.061 7.93871 14.8523C8.31246 14.5373 8.11621 13.6635 8.11371 13.1573C8.10871 12.2523 8.28121 11.6273 8.55121 11.1648C8.78871 10.7585 9.23371 10.346 9.70496 10.4873C10.2712 10.6573 10.6487 11.2173 10.8237 11.4798C10.9987 11.7423 11.2612 12.266 11.3825 12.266C11.5037 12.266 11.305 10.9148 10.7287 10.1223C10.1587 9.33854 9.33996 9.18479 8.60496 9.50479C6.96371 10.2198 6.91746 12.3898 6.91746 12.3898C6.91746 12.3898 5.87746 11.5135 5.16121 9.22479C4.98621 8.66604 4.43621 6.68104 3.88996 5.87104C3.04996 4.62479 2.15246 4.36479 1.64621 4.18979C1.13996 4.01479 0.527457 3.83979 0.509957 3.94479C0.492457 4.05104 1.68121 4.67979 2.43246 6.02604Z" fill="white"/>
<path d="M7.42997 13.1988C7.37997 12.8513 7.22247 11.9426 7.28497 10.8013C7.32747 10.0076 7.54622 8.68881 8.74872 8.25631C9.71622 7.90881 10.4712 7.90505 11.5012 8.40005C12.4562 8.8588 11.9962 8.24631 11.5475 8.01381C11.2362 7.85256 9.90997 7.18255 8.59622 7.6288C7.06872 8.14755 6.66122 9.97256 6.66122 9.97256C6.66122 9.97256 6.54997 7.98756 6.95872 7.00881C7.36747 6.02881 8.10247 5.22756 7.90122 5.16131C7.82622 5.13631 6.89872 5.51505 6.37622 6.7113C5.81872 7.9888 5.79372 9.14256 5.82997 9.80006C5.86622 10.4576 5.95997 11.1038 5.95997 11.1038C5.95997 11.1038 6.21997 11.7076 6.52622 12.0988C6.80997 12.4626 7.44497 13.3051 7.42997 13.1988Z" fill="white"/>
<path d="M8.40368 3.3564C8.34243 3.3439 7.69243 3.5939 7.36493 4.3789C7.03743 5.1639 7.31618 5.8114 7.31618 5.8114C7.31618 5.8114 8.19118 5.05015 8.35493 4.5764C8.51868 4.1014 8.48618 3.37265 8.40368 3.3564Z" fill="white"/>
<path d="M10.0413 5.5812C10.05 5.5412 9.37878 4.9762 8.86253 4.96745C8.34753 4.9587 7.71753 5.4012 7.71753 5.4012C7.71753 5.4012 7.93253 5.9162 8.74878 6.0062C9.33753 6.07245 10.025 5.65495 10.0413 5.5812ZM8.65003 4.63245C8.70753 4.6812 9.37003 4.60745 9.75378 4.1537C10.1575 3.6762 10.1638 2.59495 10.0413 2.59495C9.89503 2.59495 9.79628 2.74995 9.54253 2.9062C9.28878 3.0612 8.82253 3.51995 8.70003 3.8712C8.57628 4.2237 8.59253 4.5837 8.65003 4.63245ZM9.30128 4.70995C9.31503 4.85495 9.82753 5.3337 10.3963 5.3587C10.965 5.3837 11.4675 5.1687 11.4675 5.0837C11.4675 4.9987 11.105 4.36245 10.4763 4.29995C9.79628 4.2337 9.29503 4.6437 9.30128 4.70995ZM10.1388 4.09245C10.2063 4.2087 10.9888 4.06245 11.3563 3.55995C11.695 3.09745 11.6313 2.57495 11.595 2.50745C11.5588 2.43995 11.0138 2.49495 10.5788 2.99745C10.2188 3.4137 10.0775 3.98495 10.1388 4.09245ZM10.9525 4.09245C10.9488 4.20245 11.2763 4.64995 11.65 4.8212C12.2125 5.0787 12.9288 4.92495 12.96 4.82745C12.99 4.72995 12.6538 4.06995 12.2013 3.87245C11.6688 3.63995 10.9588 3.91495 10.9525 4.09245ZM11.755 3.58995C11.755 3.73745 12.6363 3.71245 12.9488 3.4987C13.2613 3.28495 13.585 2.7087 13.6588 2.62995C13.7325 2.5512 13.745 2.4712 13.585 2.42245C13.4263 2.3737 12.6425 2.3487 12.19 2.6862C11.7375 3.0237 11.755 3.55995 11.755 3.58995ZM12.7463 3.7862C12.665 3.83245 12.7888 3.9887 12.85 4.1162C12.9113 4.24495 13.1188 4.76495 13.5725 4.9912C14.0063 5.20745 14.595 5.1937 14.6188 5.16245C14.6438 5.13245 14.5163 4.40495 14.0738 4.0737C13.535 3.66995 12.8988 3.7012 12.7463 3.7862ZM13.4125 3.50495C13.4275 3.5762 14.025 3.88995 14.5325 3.9337C15.04 3.97745 15.5425 3.4687 15.5488 3.4137C15.555 3.3587 15.09 2.86245 14.5638 2.8812C13.8725 2.90495 13.395 3.4187 13.4125 3.50495ZM11.1738 6.20995C11.1638 6.0937 10.2125 6.07495 9.73003 6.57745C9.24628 7.0787 9.23378 7.5562 9.23378 7.5562L9.58253 7.78245C9.58253 7.78245 10.25 7.4887 10.61 7.13995C11.03 6.7337 11.185 6.34995 11.1738 6.20995Z" fill="white"/>
<path d="M10.3075 9.43995C10.4612 9.4462 10.43 8.79745 10.2825 8.3937C10.1262 7.96495 9.7137 7.65995 9.7137 7.65995L9.19995 7.76995C9.19995 7.76995 9.2112 8.2787 9.4587 8.71995C9.78745 9.30245 10.1662 9.4337 10.3075 9.43995ZM10.4512 7.8737C10.4512 7.8737 10.4 8.39745 10.6412 8.8837C10.8925 9.3912 11.4425 9.68495 11.565 9.6362C11.6875 9.58745 11.6262 8.9687 11.5462 8.67495C11.4662 8.3812 11.1 7.92245 11.1 7.92245L10.4512 7.8737ZM10.3837 7.61745C10.3837 7.61745 10.775 6.9812 11.2525 6.78495C11.9337 6.50495 12.8012 6.85245 12.8062 6.9812C12.8125 7.10995 12.2187 7.5437 11.925 7.65495C11.6312 7.76495 11.0312 7.8687 11.0312 7.8687L10.3837 7.61745ZM12.8312 7.63495C12.3112 7.65745 11.7975 7.9537 11.785 8.1187C11.7725 8.2837 12.2312 8.6512 12.8737 8.6512C13.5162 8.6512 13.9137 8.22245 13.9137 8.1612C13.915 8.09995 13.5475 7.60495 12.8312 7.63495Z" fill="white"/>
<path d="M11.9388 8.34734C11.8026 8.32234 11.6576 9.01484 11.8901 9.56484C12.1226 10.1161 12.7463 10.3911 12.7963 10.4098C12.9563 10.4698 12.9126 9.49234 12.7226 9.09359C12.5488 8.73109 12.1338 8.38484 11.9388 8.34734ZM12.8313 8.83359C12.7776 8.92734 12.8988 9.55609 13.1801 9.92234C13.6201 10.4973 14.2876 10.5398 14.3551 10.5098C14.4226 10.4798 14.3426 9.60359 13.9151 9.18859C13.5038 8.78984 12.8801 8.74734 12.8313 8.83359Z" fill="white"/>
</g>
<defs>
<clipPath id="clip0_125_30936">
<rect width="16" height="16" fill="white"/>
</clipPath>
</defs>
</svg>
