<svg width="24" height="28" viewBox="0 0 24 28" fill="none" xmlns="http://www.w3.org/2000/svg">
<path d="M10.4191 0.000356481C5.16328 -0.00843258 0.283008 0.145083 0.344532 0.484927L1.63828 2.6025C5.11641 2.30368 8.43281 2.19528 11.7551 2.21754C14.8723 2.23805 17.9953 2.37399 21.2531 2.57438L23.0813 0.62438C22.8176 0.229458 16.3781 0.0103174 10.4191 0.000356481ZM10.6418 3.27047C7.76484 3.2775 4.88203 3.38708 1.8709 3.64079C0.594141 10.8865 -0.113086 19.7283 1.54863 25.1834L0 26.9998C7.50703 27.5623 15.1477 27.7439 22.4191 27.3689L20.6672 25.283C21.798 19.0603 21.4465 10.5642 20.6789 3.59625C17.6789 3.41696 14.802 3.29743 11.9309 3.27458L19.7941 10.4939H15.6164C15.8391 11.8474 16.8117 13.6756 17.8371 15.3689C18.4172 16.3298 19.009 17.2615 19.4602 18.0818C19.9113 18.9021 20.257 19.5877 20.257 20.2791C20.257 21.9197 19.1496 23.2673 17.5207 24.1404C15.8918 25.0193 13.7063 25.4939 11.2922 25.4939C8.87813 25.4939 6.69258 25.0193 5.06367 24.1404C3.43477 23.2673 2.32734 21.9197 2.32734 20.2791C2.32734 19.5759 2.69063 18.8904 3.16523 18.0584C3.63984 17.2263 4.25508 16.2888 4.85273 15.3162C5.90742 13.6111 6.86836 11.7713 7.00313 10.4939H2.38594L10.6418 3.27047ZM11.2863 4.11247L5.19844 9.43922H8.02852L8.06953 9.91969C8.22773 11.7888 6.96211 13.9041 5.74922 15.8728C5.13984 16.8572 4.53047 17.7888 4.08516 18.5798C3.63398 19.365 3.38203 20.0447 3.38203 20.2791C3.38203 21.1345 3.79219 21.8904 4.55977 22.5408C7.73555 22.1423 9.36445 21.9197 10.7941 21.8728C10.8293 21.3748 10.8938 20.8767 10.9758 20.3963C8.83125 20.531 6.85664 19.9568 4.91133 19.2654C5.78438 17.5779 7.38984 16.4002 8.83711 16.406C9.10664 16.406 9.37031 16.4412 9.62227 16.5291C10.2785 16.74 10.8703 17.9177 11.2629 18.908C11.3918 18.2927 11.5148 17.7654 11.5676 17.3787V17.3728C11.6203 17.0095 11.4738 15.9666 11.2863 15.1052C11.1516 14.4841 11.0109 13.9392 10.9406 13.6814C10.5715 13.6814 10.2434 13.6111 10.0266 13.3884C8.53828 11.8416 9.50508 8.98219 10.7824 7.38844C11.6906 8.90016 12.8742 10.5291 14.0637 11.6541C13.8059 12.5213 13.3371 13.2185 12.4289 13.5291C12.3059 13.5408 12.1535 13.5584 12.0012 13.5818C12.0832 13.8865 12.2004 14.3435 12.3176 14.8767C12.3938 15.2107 12.4641 15.5564 12.5227 15.9021C12.8332 15.615 13.1906 15.3513 13.4836 15.3396H13.548C15.1887 15.492 17.0461 17.074 17.5148 19.3826C15.9035 18.6443 14.0578 19.072 12.5988 17.6131C12.4348 18.7029 11.9777 20.3435 11.8547 21.8787C13.2668 21.9255 14.8957 22.1482 18.0246 22.5408C18.7922 21.8904 19.2023 21.1345 19.2023 20.2791C19.2023 20.033 18.9621 19.365 18.5344 18.5916C18.1066 17.8123 17.5266 16.8923 16.9348 15.9138C15.757 13.9685 14.5148 11.8533 14.5148 9.96657V9.43922H17.0871L11.2863 4.11247ZM11.2922 22.9099C9.98555 22.9099 8.60273 23.0857 5.97773 23.4197C7.36641 24.0584 9.22969 24.4392 11.2922 24.4392C13.3547 24.4392 15.218 24.0584 16.6066 23.4197C13.9816 23.0857 12.5988 22.9099 11.2922 22.9099Z" fill="#AC7F5E"/>
</svg>
