<svg width="30" height="30" viewBox="0 0 30 30" fill="none" xmlns="http://www.w3.org/2000/svg">
<path d="M13.9286 0C13.6607 0 13.3929 0.252101 12.8571 0.756303V2.77311H9.60757C8.57143 1.76471 8.57143 1.76471 7.5 2.77311C6.42857 3.78151 6.42857 3.78151 7.5 4.78992C8.57143 5.79832 8.57143 5.79832 9.56049 4.78992H12.8571V6.80672H15V4.78992H18.2614C19.3196 5.79832 19.3194 5.79832 20.3908 4.78992C21.4623 3.78151 21.4623 3.78151 20.3908 2.77311C19.3194 1.76471 19.3196 1.76471 18.2143 2.77311H15V0.756303C14.4643 0.252101 14.1964 0 13.9286 0ZM0 4.91597V21.0504H2.14286V4.91597H0ZM4.28571 7.94118L3.21429 6.93277V19.0336L4.28571 18.0252V7.94118ZM13.9286 7.81513C11.7857 7.81513 10.6908 7.81513 10.6319 9.83193H5.35714V15.8824H9.68471C10.7143 16.8908 11.7857 17.8992 13.9286 17.8992C16.0714 17.8992 17.1429 16.8908 18.2143 15.8824C22.5 15.8824 22.5 15.8824 22.5 17.8992V19.916H28.9286V15.8824C28.9286 11.8487 26.7857 9.83193 22.5 9.83193H17.1429C17.1663 7.81513 16.0714 7.81513 13.9286 7.81513ZM21.4286 20.9244V21.9328H30V20.9244H21.4286ZM25.7143 22.9412C25.7143 22.9412 23.1145 26.1971 23.5714 28.1092C23.854 29.2916 24.4266 30 25.7143 30C27.002 30 27.5746 29.2916 27.8571 28.1092C28.314 26.1971 25.7143 22.9412 25.7143 22.9412Z" fill="#9E9E9E"/>
</svg>
