<svg width="69" height="69" viewBox="0 0 69 69" fill="none" xmlns="http://www.w3.org/2000/svg">
<path d="M22.2292 46.5215C19.1069 43.4277 17.1876 39.1309 17.1876 34.3757C17.1876 29.6204 19.1069 25.3236 22.2292 22.2298L26.297 26.2975C24.2058 28.36 22.9167 31.2246 22.9167 34.3757C22.9167 37.5267 24.2058 40.3913 26.2683 42.4824L22.2292 46.5215ZM46.5209 46.5215C49.6433 43.4277 51.5626 39.1309 51.5626 34.3757C51.5626 29.6204 49.6433 25.3236 46.5209 22.2298L42.4532 26.2975C44.5444 28.36 45.8334 31.2246 45.8334 34.3757C45.8334 37.5267 44.5444 40.3913 42.4819 42.4824L46.5209 46.5215ZM34.3751 28.6465C31.224 28.6465 28.6459 31.2246 28.6459 34.3757C28.6459 37.5267 31.224 40.1048 34.3751 40.1048C37.5261 40.1048 40.1042 37.5267 40.1042 34.3757C40.1042 31.2246 37.5261 28.6465 34.3751 28.6465ZM57.2918 34.3757C57.2918 40.7064 54.7136 46.4355 50.56 50.5605L54.6277 54.6283C59.8126 49.4434 63.0209 42.2819 63.0209 34.3757C63.0209 26.4694 59.8126 19.3079 54.6277 14.123L50.56 18.1908C52.6968 20.3091 54.3921 22.8304 55.5477 25.6086C56.7032 28.3869 57.296 31.3667 57.2918 34.3757ZM18.1902 18.1908L14.1225 14.123C8.93758 19.3079 5.72925 26.4694 5.72925 34.3757C5.72925 42.2819 8.93758 49.4434 14.1225 54.6283L18.1902 50.5605C14.0365 46.4355 11.4584 40.7064 11.4584 34.3757C11.4584 28.0449 14.0365 22.3158 18.1902 18.1908Z" fill="#1F4E20"/>
</svg>
