<svg width="65" height="46" viewBox="0 0 65 46" fill="none" xmlns="http://www.w3.org/2000/svg">
<rect x="0.1" y="0.1" width="64.8" height="45.8" fill="white"/>
<rect x="0.1" y="0.1" width="64.8" height="45.8" stroke="black" stroke-width="0.2"/>
<path d="M8.5 6.5C9.70949 6.5 10.7186 7.35886 10.9502 8.5H15V9.5H10.9502C10.7186 10.6411 9.70949 11.5 8.5 11.5C7.29051 11.5 6.28142 10.6411 6.0498 9.5H2V8.5H6.0498C6.28142 7.35886 7.29051 6.5 8.5 6.5Z" fill="#1F4E20"/>
<path d="M8.5 20.5C9.70949 20.5 10.7186 21.3589 10.9502 22.5H15V23.5H10.9502C10.7186 24.6411 9.70949 25.5 8.5 25.5C7.29051 25.5 6.28142 24.6411 6.0498 23.5H2V22.5H6.0498C6.28142 21.3589 7.29051 20.5 8.5 20.5Z" fill="#FFB310"/>
<path d="M8.5 34.5C9.70949 34.5 10.7186 35.3589 10.9502 36.5H15V37.5H10.9502C10.7186 38.6411 9.70949 39.5 8.5 39.5C7.29051 39.5 6.28142 38.6411 6.0498 37.5H2V36.5H6.0498C6.28142 35.3589 7.29051 34.5 8.5 34.5Z" fill="#6691FF"/>
<path d="M23.25 13H22.34L18.68 7.45V13H17.77V6.02H18.68L22.34 11.56V6.02H23.25V13ZM25.2713 6.63C25.0979 6.63 24.9513 6.57 24.8313 6.45C24.7113 6.33 24.6513 6.18333 24.6513 6.01C24.6513 5.83667 24.7113 5.69 24.8313 5.57C24.9513 5.45 25.0979 5.39 25.2713 5.39C25.4379 5.39 25.5779 5.45 25.6913 5.57C25.8113 5.69 25.8713 5.83667 25.8713 6.01C25.8713 6.18333 25.8113 6.33 25.6913 6.45C25.5779 6.57 25.4379 6.63 25.2713 6.63ZM25.7113 7.52V13H24.8013V7.52H25.7113ZM28.3722 8.27V11.5C28.3722 11.7667 28.4289 11.9567 28.5422 12.07C28.6555 12.1767 28.8522 12.23 29.1322 12.23H29.8022V13H28.9822C28.4755 13 28.0955 12.8833 27.8422 12.65C27.5889 12.4167 27.4622 12.0333 27.4622 11.5V8.27H26.7522V7.52H27.4622V6.14H28.3722V7.52H29.8022V8.27H28.3722ZM31.8148 8.41C31.9748 8.09667 32.2014 7.85333 32.4948 7.68C32.7948 7.50667 33.1581 7.42 33.5848 7.42V8.36H33.3448C32.3248 8.36 31.8148 8.91333 31.8148 10.02V13H30.9048V7.52H31.8148V8.41ZM37.0252 13.09C36.5119 13.09 36.0452 12.9733 35.6252 12.74C35.2119 12.5067 34.8852 12.1767 34.6452 11.75C34.4119 11.3167 34.2952 10.8167 34.2952 10.25C34.2952 9.69 34.4152 9.19667 34.6552 8.77C34.9019 8.33667 35.2352 8.00667 35.6552 7.78C36.0752 7.54667 36.5452 7.43 37.0652 7.43C37.5852 7.43 38.0552 7.54667 38.4752 7.78C38.8952 8.00667 39.2252 8.33333 39.4652 8.76C39.7119 9.18667 39.8352 9.68333 39.8352 10.25C39.8352 10.8167 39.7086 11.3167 39.4552 11.75C39.2086 12.1767 38.8719 12.5067 38.4452 12.74C38.0186 12.9733 37.5452 13.09 37.0252 13.09ZM37.0252 12.29C37.3519 12.29 37.6586 12.2133 37.9452 12.06C38.2319 11.9067 38.4619 11.6767 38.6352 11.37C38.8152 11.0633 38.9052 10.69 38.9052 10.25C38.9052 9.81 38.8186 9.43667 38.6452 9.13C38.4719 8.82333 38.2452 8.59667 37.9652 8.45C37.6852 8.29667 37.3819 8.22 37.0552 8.22C36.7219 8.22 36.4152 8.29667 36.1352 8.45C35.8619 8.59667 35.6419 8.82333 35.4752 9.13C35.3086 9.43667 35.2252 9.81 35.2252 10.25C35.2252 10.6967 35.3052 11.0733 35.4652 11.38C35.6319 11.6867 35.8519 11.9167 36.1252 12.07C36.3986 12.2167 36.6986 12.29 37.0252 12.29ZM43.2917 7.43C43.7651 7.43 44.1784 7.53333 44.5317 7.74C44.8917 7.94667 45.1584 8.20667 45.3317 8.52V7.52H46.2517V13.12C46.2517 13.62 46.1451 14.0633 45.9317 14.45C45.7184 14.8433 45.4117 15.15 45.0117 15.37C44.6184 15.59 44.1584 15.7 43.6317 15.7C42.9117 15.7 42.3117 15.53 41.8317 15.19C41.3517 14.85 41.0684 14.3867 40.9817 13.8H41.8817C41.9817 14.1333 42.1884 14.4 42.5017 14.6C42.8151 14.8067 43.1917 14.91 43.6317 14.91C44.1317 14.91 44.5384 14.7533 44.8517 14.44C45.1717 14.1267 45.3317 13.6867 45.3317 13.12V11.97C45.1517 12.29 44.8851 12.5567 44.5317 12.77C44.1784 12.9833 43.7651 13.09 43.2917 13.09C42.8051 13.09 42.3617 12.97 41.9617 12.73C41.5684 12.49 41.2584 12.1533 41.0317 11.72C40.8051 11.2867 40.6917 10.7933 40.6917 10.24C40.6917 9.68 40.8051 9.19 41.0317 8.77C41.2584 8.34333 41.5684 8.01333 41.9617 7.78C42.3617 7.54667 42.8051 7.43 43.2917 7.43ZM45.3317 10.25C45.3317 9.83667 45.2484 9.47667 45.0817 9.17C44.9151 8.86333 44.6884 8.63 44.4017 8.47C44.1217 8.30333 43.8117 8.22 43.4717 8.22C43.1317 8.22 42.8217 8.3 42.5417 8.46C42.2617 8.62 42.0384 8.85333 41.8717 9.16C41.7051 9.46667 41.6217 9.82667 41.6217 10.24C41.6217 10.66 41.7051 11.0267 41.8717 11.34C42.0384 11.6467 42.2617 11.8833 42.5417 12.05C42.8217 12.21 43.1317 12.29 43.4717 12.29C43.8117 12.29 44.1217 12.21 44.4017 12.05C44.6884 11.8833 44.9151 11.6467 45.0817 11.34C45.2484 11.0267 45.3317 10.6633 45.3317 10.25ZM52.7895 10.05C52.7895 10.2233 52.7795 10.4067 52.7595 10.6H48.3795C48.4129 11.14 48.5962 11.5633 48.9295 11.87C49.2695 12.17 49.6795 12.32 50.1595 12.32C50.5529 12.32 50.8795 12.23 51.1395 12.05C51.4062 11.8633 51.5929 11.6167 51.6995 11.31H52.6795C52.5329 11.8367 52.2395 12.2667 51.7995 12.6C51.3595 12.9267 50.8129 13.09 50.1595 13.09C49.6395 13.09 49.1729 12.9733 48.7595 12.74C48.3529 12.5067 48.0329 12.1767 47.7995 11.75C47.5662 11.3167 47.4495 10.8167 47.4495 10.25C47.4495 9.68333 47.5629 9.18667 47.7895 8.76C48.0162 8.33333 48.3329 8.00667 48.7395 7.78C49.1529 7.54667 49.6262 7.43 50.1595 7.43C50.6795 7.43 51.1395 7.54333 51.5395 7.77C51.9395 7.99667 52.2462 8.31 52.4595 8.71C52.6795 9.10333 52.7895 9.55 52.7895 10.05ZM51.8495 9.86C51.8495 9.51333 51.7729 9.21667 51.6195 8.97C51.4662 8.71667 51.2562 8.52667 50.9895 8.4C50.7295 8.26667 50.4395 8.2 50.1195 8.2C49.6595 8.2 49.2662 8.34667 48.9395 8.64C48.6195 8.93333 48.4362 9.34 48.3895 9.86H51.8495ZM56.6607 7.42C57.3274 7.42 57.8674 7.62333 58.2807 8.03C58.694 8.43 58.9007 9.01 58.9007 9.77V13H58.0007V9.9C58.0007 9.35333 57.864 8.93667 57.5907 8.65C57.3174 8.35667 56.944 8.21 56.4707 8.21C55.9907 8.21 55.6074 8.36 55.3207 8.66C55.0407 8.96 54.9007 9.39667 54.9007 9.97V13H53.9907V7.52H54.9007V8.3C55.0807 8.02 55.324 7.80333 55.6307 7.65C55.944 7.49667 56.2874 7.42 56.6607 7.42Z" fill="black"/>
<path d="M22.43 22.07C22.43 22.65 22.23 23.1333 21.83 23.52C21.4367 23.9 20.8333 24.09 20.02 24.09H18.68V27H17.77V20.03H20.02C20.8067 20.03 21.4033 20.22 21.81 20.6C22.2233 20.98 22.43 21.47 22.43 22.07ZM20.02 23.34C20.5267 23.34 20.9 23.23 21.14 23.01C21.38 22.79 21.5 22.4767 21.5 22.07C21.5 21.21 21.0067 20.78 20.02 20.78H18.68V23.34H20.02ZM26.281 21.42C26.6943 21.42 27.0677 21.51 27.401 21.69C27.7343 21.8633 27.9943 22.1267 28.181 22.48C28.3743 22.8333 28.471 23.2633 28.471 23.77V27H27.571V23.9C27.571 23.3533 27.4343 22.9367 27.161 22.65C26.8877 22.3567 26.5143 22.21 26.041 22.21C25.561 22.21 25.1777 22.36 24.891 22.66C24.611 22.96 24.471 23.3967 24.471 23.97V27H23.561V19.6H24.471V22.3C24.651 22.02 24.8977 21.8033 25.211 21.65C25.531 21.4967 25.8877 21.42 26.281 21.42ZM32.3475 27.09C31.8342 27.09 31.3675 26.9733 30.9475 26.74C30.5342 26.5067 30.2075 26.1767 29.9675 25.75C29.7342 25.3167 29.6175 24.8167 29.6175 24.25C29.6175 23.69 29.7375 23.1967 29.9775 22.77C30.2242 22.3367 30.5575 22.0067 30.9775 21.78C31.3975 21.5467 31.8675 21.43 32.3875 21.43C32.9075 21.43 33.3775 21.5467 33.7975 21.78C34.2175 22.0067 34.5475 22.3333 34.7875 22.76C35.0342 23.1867 35.1575 23.6833 35.1575 24.25C35.1575 24.8167 35.0308 25.3167 34.7775 25.75C34.5308 26.1767 34.1942 26.5067 33.7675 26.74C33.3408 26.9733 32.8675 27.09 32.3475 27.09ZM32.3475 26.29C32.6742 26.29 32.9808 26.2133 33.2675 26.06C33.5542 25.9067 33.7842 25.6767 33.9575 25.37C34.1375 25.0633 34.2275 24.69 34.2275 24.25C34.2275 23.81 34.1408 23.4367 33.9675 23.13C33.7942 22.8233 33.5675 22.5967 33.2875 22.45C33.0075 22.2967 32.7042 22.22 32.3775 22.22C32.0442 22.22 31.7375 22.2967 31.4575 22.45C31.1842 22.5967 30.9642 22.8233 30.7975 23.13C30.6308 23.4367 30.5475 23.81 30.5475 24.25C30.5475 24.6967 30.6275 25.0733 30.7875 25.38C30.9542 25.6867 31.1742 25.9167 31.4475 26.07C31.7208 26.2167 32.0208 26.29 32.3475 26.29ZM38.294 27.09C37.874 27.09 37.4973 27.02 37.164 26.88C36.8307 26.7333 36.5673 26.5333 36.374 26.28C36.1807 26.02 36.074 25.7233 36.054 25.39H36.994C37.0207 25.6633 37.1473 25.8867 37.374 26.06C37.6073 26.2333 37.9107 26.32 38.284 26.32C38.6307 26.32 38.904 26.2433 39.104 26.09C39.304 25.9367 39.404 25.7433 39.404 25.51C39.404 25.27 39.2973 25.0933 39.084 24.98C38.8707 24.86 38.5407 24.7433 38.094 24.63C37.6873 24.5233 37.354 24.4167 37.094 24.31C36.8407 24.1967 36.6207 24.0333 36.434 23.82C36.254 23.6 36.164 23.3133 36.164 22.96C36.164 22.68 36.2473 22.4233 36.414 22.19C36.5807 21.9567 36.8173 21.7733 37.124 21.64C37.4307 21.5 37.7807 21.43 38.174 21.43C38.7807 21.43 39.2707 21.5833 39.644 21.89C40.0173 22.1967 40.2173 22.6167 40.244 23.15H39.334C39.314 22.8633 39.1973 22.6333 38.984 22.46C38.7773 22.2867 38.4973 22.2 38.144 22.2C37.8173 22.2 37.5573 22.27 37.364 22.41C37.1707 22.55 37.074 22.7333 37.074 22.96C37.074 23.14 37.1307 23.29 37.244 23.41C37.364 23.5233 37.5107 23.6167 37.684 23.69C37.864 23.7567 38.1107 23.8333 38.424 23.92C38.8173 24.0267 39.1373 24.1333 39.384 24.24C39.6307 24.34 39.8407 24.4933 40.014 24.7C40.194 24.9067 40.2873 25.1767 40.294 25.51C40.294 25.81 40.2107 26.08 40.044 26.32C39.8773 26.56 39.6407 26.75 39.334 26.89C39.034 27.0233 38.6873 27.09 38.294 27.09ZM42.4886 22.53C42.6686 22.2167 42.9353 21.9567 43.2886 21.75C43.6486 21.5367 44.0653 21.43 44.5386 21.43C45.0253 21.43 45.4653 21.5467 45.8586 21.78C46.2586 22.0133 46.5719 22.3433 46.7986 22.77C47.0253 23.19 47.1386 23.68 47.1386 24.24C47.1386 24.7933 47.0253 25.2867 46.7986 25.72C46.5719 26.1533 46.2586 26.49 45.8586 26.73C45.4653 26.97 45.0253 27.09 44.5386 27.09C44.0719 27.09 43.6586 26.9867 43.2986 26.78C42.9453 26.5667 42.6753 26.3033 42.4886 25.99V29.6H41.5786V21.52H42.4886V22.53ZM46.2086 24.24C46.2086 23.8267 46.1253 23.4667 45.9586 23.16C45.7919 22.8533 45.5653 22.62 45.2786 22.46C44.9986 22.3 44.6886 22.22 44.3486 22.22C44.0153 22.22 43.7053 22.3033 43.4186 22.47C43.1386 22.63 42.9119 22.8667 42.7386 23.18C42.5719 23.4867 42.4886 23.8433 42.4886 24.25C42.4886 24.6633 42.5719 25.0267 42.7386 25.34C42.9119 25.6467 43.1386 25.8833 43.4186 26.05C43.7053 26.21 44.0153 26.29 44.3486 26.29C44.6886 26.29 44.9986 26.21 45.2786 26.05C45.5653 25.8833 45.7919 25.6467 45.9586 25.34C46.1253 25.0267 46.2086 24.66 46.2086 24.24ZM50.7264 27.09C50.2131 27.09 49.7464 26.9733 49.3264 26.74C48.9131 26.5067 48.5864 26.1767 48.3464 25.75C48.1131 25.3167 47.9964 24.8167 47.9964 24.25C47.9964 23.69 48.1164 23.1967 48.3564 22.77C48.6031 22.3367 48.9364 22.0067 49.3564 21.78C49.7764 21.5467 50.2464 21.43 50.7664 21.43C51.2864 21.43 51.7564 21.5467 52.1764 21.78C52.5964 22.0067 52.9264 22.3333 53.1664 22.76C53.4131 23.1867 53.5364 23.6833 53.5364 24.25C53.5364 24.8167 53.4097 25.3167 53.1564 25.75C52.9097 26.1767 52.5731 26.5067 52.1464 26.74C51.7197 26.9733 51.2464 27.09 50.7264 27.09ZM50.7264 26.29C51.0531 26.29 51.3597 26.2133 51.6464 26.06C51.9331 25.9067 52.1631 25.6767 52.3364 25.37C52.5164 25.0633 52.6064 24.69 52.6064 24.25C52.6064 23.81 52.5197 23.4367 52.3464 23.13C52.1731 22.8233 51.9464 22.5967 51.6664 22.45C51.3864 22.2967 51.0831 22.22 50.7564 22.22C50.4231 22.22 50.1164 22.2967 49.8364 22.45C49.5631 22.5967 49.3431 22.8233 49.1764 23.13C49.0097 23.4367 48.9264 23.81 48.9264 24.25C48.9264 24.6967 49.0064 25.0733 49.1664 25.38C49.3331 25.6867 49.5531 25.9167 49.8264 26.07C50.0997 26.2167 50.3997 26.29 50.7264 26.29ZM55.6429 22.41C55.8029 22.0967 56.0296 21.8533 56.3229 21.68C56.6229 21.5067 56.9862 21.42 57.4129 21.42V22.36H57.1729C56.1529 22.36 55.6429 22.9133 55.6429 24.02V27H54.7329V21.52H55.6429V22.41Z" fill="black"/>
<path d="M21.55 41L18.68 37.82V41H17.77V34.03H18.68V37.26L21.56 34.03H22.71L19.55 37.52L22.74 41H21.55ZM23.4163 38.24C23.4163 37.68 23.5297 37.19 23.7563 36.77C23.983 36.3433 24.293 36.0133 24.6863 35.78C25.0863 35.5467 25.5297 35.43 26.0163 35.43C26.4963 35.43 26.913 35.5333 27.2663 35.74C27.6197 35.9467 27.883 36.2067 28.0563 36.52V35.52H28.9763V41H28.0563V39.98C27.8763 40.3 27.6063 40.5667 27.2463 40.78C26.893 40.9867 26.4797 41.09 26.0063 41.09C25.5197 41.09 25.0797 40.97 24.6863 40.73C24.293 40.49 23.983 40.1533 23.7563 39.72C23.5297 39.2867 23.4163 38.7933 23.4163 38.24ZM28.0563 38.25C28.0563 37.8367 27.973 37.4767 27.8063 37.17C27.6397 36.8633 27.413 36.63 27.1263 36.47C26.8463 36.3033 26.5363 36.22 26.1963 36.22C25.8563 36.22 25.5463 36.3 25.2663 36.46C24.9863 36.62 24.763 36.8533 24.5963 37.16C24.4297 37.4667 24.3463 37.8267 24.3463 38.24C24.3463 38.66 24.4297 39.0267 24.5963 39.34C24.763 39.6467 24.9863 39.8833 25.2663 40.05C25.5463 40.21 25.8563 40.29 26.1963 40.29C26.5363 40.29 26.8463 40.21 27.1263 40.05C27.413 39.8833 27.6397 39.6467 27.8063 39.34C27.973 39.0267 28.0563 38.6633 28.0563 38.25ZM31.4241 33.6V41H30.5141V33.6H31.4241ZM33.4451 34.63C33.2717 34.63 33.1251 34.57 33.0051 34.45C32.8851 34.33 32.8251 34.1833 32.8251 34.01C32.8251 33.8367 32.8851 33.69 33.0051 33.57C33.1251 33.45 33.2717 33.39 33.4451 33.39C33.6117 33.39 33.7517 33.45 33.8651 33.57C33.9851 33.69 34.0451 33.8367 34.0451 34.01C34.0451 34.1833 33.9851 34.33 33.8651 34.45C33.7517 34.57 33.6117 34.63 33.4451 34.63ZM33.8851 35.52V41H32.9751V35.52H33.8851ZM40.296 35.52V41H39.386V40.19C39.2127 40.47 38.9693 40.69 38.656 40.85C38.3493 41.0033 38.0093 41.08 37.636 41.08C37.2093 41.08 36.826 40.9933 36.486 40.82C36.146 40.64 35.876 40.3733 35.676 40.02C35.4827 39.6667 35.386 39.2367 35.386 38.73V35.52H36.286V38.61C36.286 39.15 36.4227 39.5667 36.696 39.86C36.9693 40.1467 37.3427 40.29 37.816 40.29C38.3027 40.29 38.686 40.14 38.966 39.84C39.246 39.54 39.386 39.1033 39.386 38.53V35.52H40.296ZM48.4225 35.42C48.8492 35.42 49.2292 35.51 49.5625 35.69C49.8958 35.8633 50.1592 36.1267 50.3525 36.48C50.5458 36.8333 50.6425 37.2633 50.6425 37.77V41H49.7425V37.9C49.7425 37.3533 49.6058 36.9367 49.3325 36.65C49.0658 36.3567 48.7025 36.21 48.2425 36.21C47.7692 36.21 47.3925 36.3633 47.1125 36.67C46.8325 36.97 46.6925 37.4067 46.6925 37.98V41H45.7925V37.9C45.7925 37.3533 45.6558 36.9367 45.3825 36.65C45.1158 36.3567 44.7525 36.21 44.2925 36.21C43.8192 36.21 43.4425 36.3633 43.1625 36.67C42.8825 36.97 42.7425 37.4067 42.7425 37.98V41H41.8325V35.52H42.7425V36.31C42.9225 36.0233 43.1625 35.8033 43.4625 35.65C43.7692 35.4967 44.1058 35.42 44.4725 35.42C44.9325 35.42 45.3392 35.5233 45.6925 35.73C46.0458 35.9367 46.3092 36.24 46.4825 36.64C46.6358 36.2533 46.8892 35.9533 47.2425 35.74C47.5958 35.5267 47.9892 35.42 48.4225 35.42Z" fill="black"/>
</svg>
