<svg width="15" height="15" viewBox="0 0 15 15" fill="none" xmlns="http://www.w3.org/2000/svg">
<g clip-path="url(#clip0_159_40078)">
<path d="M11.25 1.25L14.0625 4.0625M0.9375 4.0625L3.75 1.25M1.875 8.125C1.875 8.86369 2.02049 9.59514 2.30318 10.2776C2.58586 10.9601 3.00019 11.5801 3.52252 12.1025C4.04485 12.6248 4.66495 13.0391 5.34741 13.3218C6.02986 13.6045 6.76131 13.75 7.5 13.75C8.23869 13.75 8.97014 13.6045 9.65259 13.3218C10.3351 13.0391 10.9551 12.6248 11.4775 12.1025C11.9998 11.5801 12.4141 10.9601 12.6968 10.2776C12.9795 9.59514 13.125 8.86369 13.125 8.125C13.125 7.38631 12.9795 6.65486 12.6968 5.97241C12.4141 5.28995 11.9998 4.66985 11.4775 4.14752C10.9551 3.62519 10.3351 3.21086 9.65259 2.92818C8.97014 2.64549 8.23869 2.5 7.5 2.5C6.76131 2.5 6.02986 2.64549 5.34741 2.92818C4.66495 3.21086 4.04485 3.62519 3.52252 4.14752C3.00019 4.66985 2.58586 5.28995 2.30318 5.97241C2.02049 6.65486 1.875 7.38631 1.875 8.125Z" stroke="#1F4E20" stroke-width="1.5"/>
<path d="M7.5 5V8.125H9.6875M7.5 2.5V0.625" stroke="#1F4E20" stroke-width="1.5"/>
</g>
<defs>
<clipPath id="clip0_159_40078">
<rect width="15" height="15" fill="white"/>
</clipPath>
</defs>
</svg>
