<svg width="34" height="34" viewBox="0 0 34 34" fill="none" xmlns="http://www.w3.org/2000/svg">
<circle cx="17" cy="17" r="16.5" transform="matrix(-1 0 0 1 34 0)" fill="#F4FAF4" stroke="#1F4E20"/>
<path d="M16 10C15.3793 9.99968 14.7739 10.1919 14.267 10.5501C13.7602 10.9083 13.3769 11.4148 13.17 12H10V14H13.17C13.3766 14.5855 13.7597 15.0926 14.2666 15.4512C14.7735 15.8099 15.3791 16.0025 16 16.0025C16.6209 16.0025 17.2265 15.8099 17.7334 15.4512C18.2403 15.0926 18.6234 14.5855 18.83 14H26V12H18.83C18.6231 11.4148 18.2398 10.9083 17.733 10.5501C17.2261 10.1919 16.6207 9.99968 16 10ZM15 13C15 12.7348 15.1054 12.4804 15.2929 12.2929C15.4804 12.1054 15.7348 12 16 12C16.2652 12 16.5196 12.1054 16.7071 12.2929C16.8946 12.4804 17 12.7348 17 13C17 13.2652 16.8946 13.5196 16.7071 13.7071C16.5196 13.8946 16.2652 14 16 14C15.7348 14 15.4804 13.8946 15.2929 13.7071C15.1054 13.5196 15 13.2652 15 13ZM20 18C19.3793 17.9997 18.7739 18.1919 18.267 18.5501C17.7602 18.9083 17.3769 19.4148 17.17 20H10V22H17.17C17.3766 22.5855 17.7597 23.0926 18.2666 23.4512C18.7735 23.8099 19.3791 24.0025 20 24.0025C20.6209 24.0025 21.2265 23.8099 21.7334 23.4512C22.2403 23.0926 22.6234 22.5855 22.83 22H26V20H22.83C22.6231 19.4148 22.2398 18.9083 21.733 18.5501C21.2261 18.1919 20.6207 17.9997 20 18ZM19 21C19 20.7348 19.1054 20.4804 19.2929 20.2929C19.4804 20.1054 19.7348 20 20 20C20.2652 20 20.5196 20.1054 20.7071 20.2929C20.8946 20.4804 21 20.7348 21 21C21 21.2652 20.8946 21.5196 20.7071 21.7071C20.5196 21.8946 20.2652 22 20 22C19.7348 22 19.4804 21.8946 19.2929 21.7071C19.1054 21.5196 19 21.2652 19 21Z" fill="#1F4E20"/>
</svg>
