<svg width="35" height="35" viewBox="0 0 35 35" fill="none" xmlns="http://www.w3.org/2000/svg">
<path d="M21.6782 19.6044H24.4797M21.6782 12.6001H24.4797M21.6782 5.59424H24.4797" stroke="#191919" stroke-linecap="round" stroke-linejoin="round"/>
<path d="M18.8899 23.135V4.24963C18.8899 3.50954 18.5959 2.79976 18.0726 2.27643C17.5492 1.75311 16.8395 1.45911 16.0994 1.45911C15.3593 1.45911 14.6495 1.75311 14.1262 2.27643C13.6028 2.79976 13.3088 3.50954 13.3088 4.24963V23.135C12.2457 23.7493 11.415 24.6971 10.9454 25.8315C10.4758 26.966 10.3936 28.2236 10.7115 29.4095C11.0295 30.5954 11.7298 31.6433 12.704 32.3907C13.6781 33.138 14.8716 33.5431 16.0994 33.5431C17.3272 33.5431 18.5207 33.138 19.4948 32.3907C20.4689 31.6433 21.1692 30.5954 21.4872 29.4095C21.8052 28.2236 21.723 26.966 21.2534 25.8315C20.7838 24.6971 19.953 23.7493 18.8899 23.135Z" fill="#FF808C"/>
<path d="M16.0988 29.3534C16.4685 29.3534 16.8231 29.2065 17.0846 28.9451C17.346 28.6836 17.4929 28.329 17.4929 27.9592C17.4929 27.5895 17.346 27.2349 17.0846 26.9734C16.8231 26.7119 16.4685 26.5651 16.0988 26.5651C15.729 26.5651 15.3744 26.7119 15.1129 26.9734C14.8515 27.2349 14.7046 27.5895 14.7046 27.9592C14.7046 28.329 14.8515 28.6836 15.1129 28.9451C15.3744 29.2065 15.729 29.3534 16.0988 29.3534Z" fill="#FFEF5E" stroke="#191919" stroke-linecap="round" stroke-linejoin="round"/>
<path d="M16.1001 1.45984C15.7337 1.45927 15.3708 1.53099 15.0321 1.67089C14.6935 1.8108 14.3858 2.01614 14.1266 2.27515C13.8675 2.53417 13.662 2.84177 13.5219 3.18034C13.3818 3.5189 13.3099 3.88178 13.3103 4.24818V11.5369H18.8884V4.24963C18.889 3.88348 18.8174 3.5208 18.6777 3.18236C18.5379 2.84391 18.3329 2.53633 18.0741 2.27722C17.8154 2.0181 17.5082 1.81254 17.17 1.67229C16.8317 1.53203 16.4692 1.45984 16.103 1.45984H16.1001Z" fill="white"/>
<path d="M16.1001 26.5636V5.64379M18.8899 23.135V4.24963C18.8899 3.50954 18.5959 2.79976 18.0726 2.27643C17.5492 1.75311 16.8395 1.45911 16.0994 1.45911C15.3593 1.45911 14.6495 1.75311 14.1262 2.27643C13.6028 2.79976 13.3088 3.50954 13.3088 4.24963V23.135C12.2457 23.7493 11.415 24.6971 10.9454 25.8315C10.4758 26.9659 10.3936 28.2236 10.7115 29.4095C11.0295 30.5954 11.7298 31.6433 12.704 32.3907C13.6781 33.138 14.8716 33.5431 16.0994 33.5431C17.3272 33.5431 18.5207 33.138 19.4948 32.3907C20.4689 31.6433 21.1692 30.5954 21.4872 29.4095C21.8052 28.2236 21.723 26.9659 21.2534 25.8315C20.7838 24.6971 19.953 23.7493 18.8899 23.135Z" stroke="#191919" stroke-linecap="round" stroke-linejoin="round"/>
</svg>
