<svg width="25" height="21" viewBox="0 0 25 21" fill="none" xmlns="http://www.w3.org/2000/svg">
<path d="M8.94366 20.2237C9.33441 20.6145 9.86438 20.834 10.417 20.834C10.9696 20.834 11.4996 20.6145 11.8903 20.2237C12.2811 19.833 12.5006 19.303 12.5006 18.7504C12.5006 18.1978 12.2811 17.6678 11.8903 17.277L7.11366 12.5004L22.0837 12.5004C22.6362 12.5004 23.1661 12.2809 23.5568 11.8902C23.9475 11.4995 24.167 10.9696 24.167 10.417C24.167 9.86451 23.9475 9.3346 23.5568 8.9439C23.1661 8.5532 22.6362 8.33371 22.0837 8.33371L7.11366 8.33371L11.8903 3.55704C12.2811 3.16629 12.5006 2.63631 12.5006 2.08371C12.5006 1.5311 12.2811 1.00113 11.8903 0.610374C11.4996 0.219622 10.9696 0.000101094 10.417 0.000101089C9.86438 0.000101085 9.33441 0.219622 8.94366 0.610374L0.610323 8.94371C0.416809 9.13717 0.263305 9.36686 0.158573 9.61966C0.0538415 9.87245 -6.29425e-05 10.1434 -6.29425e-05 10.417C-6.29425e-05 10.6907 0.0538415 10.9616 0.158573 11.2144C0.263305 11.4672 0.416809 11.6969 0.610323 11.8904L8.94366 20.2237Z" fill="#1F4E20"/>
</svg>
