<svg width="34" height="34" viewBox="0 0 34 34" fill="none" xmlns="http://www.w3.org/2000/svg">
<path d="M21.331 4.85742C22.0458 4.8572 22.7343 5.12716 23.2584 5.61321C23.7826 6.09925 24.1036 6.76545 24.1572 7.47826L24.1643 7.69076C24.1644 8.03774 24.2917 8.37265 24.5223 8.63195C24.7529 8.89125 25.0706 9.05691 25.4152 9.09751L25.581 9.10742H26.9976C28.0817 9.10736 29.1248 9.52155 29.9135 10.2652C30.7022 11.0089 31.177 12.0259 31.2406 13.1081L31.2476 13.3574V26.1074C31.2477 27.1915 30.8335 28.2346 30.0898 29.0233C29.3461 29.812 28.3292 30.2867 27.247 30.3503L26.9976 30.3574H7.16431C6.08026 30.3575 5.03716 29.9433 4.24844 29.1996C3.45971 28.4559 2.98499 27.4389 2.92139 26.3568L2.91431 26.1074V13.3574C2.91425 12.2734 3.32843 11.2303 4.07213 10.4416C4.81582 9.65283 5.83279 9.1781 6.91497 9.11451L7.16431 9.10742H8.58097C8.9567 9.10742 9.31703 8.95817 9.58271 8.69249C9.84838 8.42681 9.99764 8.06648 9.99764 7.69076C9.99741 6.97594 10.2674 6.28745 10.7534 5.76331C11.2395 5.23917 11.9057 4.91812 12.6185 4.86451L12.831 4.85742H21.331ZM17.081 14.7741C16.0278 14.774 15.0121 15.1649 14.2308 15.8711C13.4495 16.5773 12.9582 17.5484 12.8522 18.5963L12.8366 18.8116L12.831 19.0241L12.8366 19.2366C12.8782 20.0671 13.1625 20.8671 13.6543 21.5377C14.1461 22.2082 14.8238 22.7197 15.6034 23.0088C16.3831 23.298 17.2304 23.3521 18.0405 23.1644C18.8506 22.9768 19.5878 22.5556 20.1609 21.9531C20.7339 21.3505 21.1177 20.5931 21.2645 19.7747C21.4114 18.9562 21.3149 18.1126 20.9871 17.3485C20.6592 16.5843 20.1144 15.9331 19.4201 15.4755C18.7258 15.0179 17.9125 14.774 17.081 14.7741Z" fill="#1F4E20"/>
</svg>
