<svg width="22" height="22" viewBox="0 0 22 22" fill="none" xmlns="http://www.w3.org/2000/svg">
<path d="M1.20833 21.75C0.865972 21.75 0.579195 21.634 0.348 21.402C0.116806 21.17 0.000805556 20.8832 0 20.5417V17.6115C0 17.2892 0.0604168 16.9819 0.18125 16.6895C0.302083 16.3971 0.473264 16.1405 0.694792 15.9198L15.95 0.694792C16.1917 0.473264 16.4587 0.302083 16.7511 0.18125C17.0435 0.0604168 17.3505 0 17.6719 0C17.9933 0 18.3054 0.0604168 18.6083 0.18125C18.9112 0.302083 19.173 0.483333 19.3937 0.725L21.0552 2.41667C21.2969 2.63819 21.4729 2.9 21.5833 3.20208C21.6936 3.50417 21.7492 3.80625 21.75 4.10833C21.75 4.43056 21.6944 4.73788 21.5833 5.03029C21.4721 5.32271 21.2961 5.58935 21.0552 5.83021L5.83021 21.0552C5.60868 21.2767 5.35171 21.4479 5.05929 21.5688C4.76687 21.6896 4.45996 21.75 4.13854 21.75H1.20833ZM17.6417 5.8L19.3333 4.10833L17.6417 2.41667L15.95 4.10833L17.6417 5.8Z" fill="#1F4E20"/>
</svg>
