<svg width="29" height="29" viewBox="0 0 29 29" fill="none" xmlns="http://www.w3.org/2000/svg">
<path d="M24.1667 9.66732L14.5001 15.709L4.83341 9.66732V7.25065L14.5001 13.2923L24.1667 7.25065M24.1667 4.83398H4.83341C3.49216 4.83398 2.41675 5.9094 2.41675 7.25065V21.7507C2.41675 22.3916 2.67136 23.0063 3.12457 23.4595C3.57779 23.9127 4.19247 24.1673 4.83341 24.1673H24.1667C24.8077 24.1673 25.4224 23.9127 25.8756 23.4595C26.3288 23.0063 26.5834 22.3916 26.5834 21.7507V7.25065C26.5834 6.60971 26.3288 5.99502 25.8756 5.54181C25.4224 5.0886 24.8077 4.83398 24.1667 4.83398Z" fill="#1F4E20"/>
</svg>
