<svg width="29" height="29" viewBox="0 0 29 29" fill="none" xmlns="http://www.w3.org/2000/svg">
<path d="M14.4999 20.5423C15.1409 20.5423 15.7555 20.2877 16.2088 19.8345C16.662 19.3813 16.9166 18.7666 16.9166 18.1257C16.9166 17.4847 16.662 16.87 16.2088 16.4168C15.7555 15.9636 15.1409 15.709 14.4999 15.709C13.859 15.709 13.2443 15.9636 12.7911 16.4168C12.3379 16.87 12.0833 17.4847 12.0833 18.1257C12.0833 18.7666 12.3379 19.3813 12.7911 19.8345C13.2443 20.2877 13.859 20.5423 14.4999 20.5423ZM21.7499 9.66732C22.3909 9.66732 23.0055 9.92193 23.4588 10.3751C23.912 10.8284 24.1666 11.443 24.1666 12.084V24.1673C24.1666 24.8083 23.912 25.4229 23.4588 25.8762C23.0055 26.3294 22.3909 26.584 21.7499 26.584H7.24992C6.60898 26.584 5.99429 26.3294 5.54108 25.8762C5.08786 25.4229 4.83325 24.8083 4.83325 24.1673V12.084C4.83325 11.443 5.08786 10.8284 5.54108 10.3751C5.99429 9.92193 6.60898 9.66732 7.24992 9.66732H8.45825V7.25065C8.45825 5.6483 9.09478 4.11158 10.2278 2.97855C11.3608 1.84552 12.8976 1.20898 14.4999 1.20898C15.2933 1.20898 16.079 1.36526 16.812 1.66888C17.545 1.9725 18.211 2.41753 18.772 2.97855C19.333 3.53957 19.7781 4.2056 20.0817 4.93861C20.3853 5.67161 20.5416 6.45725 20.5416 7.25065V9.66732H21.7499ZM14.4999 3.62565C13.5385 3.62565 12.6165 4.00757 11.9367 4.68739C11.2568 5.36721 10.8749 6.28924 10.8749 7.25065V9.66732H18.1249V7.25065C18.1249 6.28924 17.743 5.36721 17.0632 4.68739C16.3834 4.00757 15.4613 3.62565 14.4999 3.62565Z" fill="#1F4E20"/>
</svg>
