<svg width="53" height="53" viewBox="0 0 53 53" fill="none" xmlns="http://www.w3.org/2000/svg">
<circle cx="26.5" cy="26.5" r="26.5" fill="#AAAAAA" fill-opacity="0.25"/>
<path d="M26.5005 14.416C24.2572 14.416 22.1058 15.3072 20.5195 16.8934C18.9333 18.4796 18.0421 20.6311 18.0421 22.8743V27.1373C18.0423 27.3248 17.9989 27.5097 17.9153 27.6775L15.8406 31.8257C15.7392 32.0283 15.6914 32.2535 15.7015 32.4799C15.7117 32.7063 15.7796 32.9263 15.8987 33.119C16.0179 33.3118 16.1843 33.4708 16.3822 33.5812C16.5801 33.6915 16.803 33.7494 17.0296 33.7493H35.9714C36.198 33.7494 36.4208 33.6915 36.6187 33.5812C36.8167 33.4708 36.9831 33.3118 37.1022 33.119C37.2213 32.9263 37.2892 32.7063 37.2994 32.4799C37.3096 32.2535 37.2617 32.0283 37.1604 31.8257L35.0869 27.6775C35.0029 27.5098 34.959 27.3249 34.9588 27.1373V22.8743C34.9588 20.6311 34.0677 18.4796 32.4814 16.8934C30.8952 15.3072 28.7438 14.416 26.5005 14.416ZM26.5005 37.3743C25.7505 37.3747 25.0189 37.1425 24.4065 36.7097C23.794 36.2769 23.3309 35.6647 23.0809 34.9577H29.9201C29.6701 35.6647 29.2069 36.2769 28.5945 36.7097C27.982 37.1425 27.2504 37.3747 26.5005 37.3743Z" fill="#1F4E20"/>
</svg>
