<svg width="29" height="29" viewBox="0 0 29 29" fill="none" xmlns="http://www.w3.org/2000/svg">
<path d="M14.8003 4C12.557 4 10.4056 4.89114 8.81933 6.47739C7.23309 8.06363 6.34195 10.215 6.34195 12.4583V16.7213C6.34212 16.9088 6.29868 17.0937 6.21507 17.2615L4.14036 21.4097C4.03902 21.6123 3.99116 21.8375 4.00134 22.0639C4.01152 22.2903 4.07941 22.5103 4.19854 22.703C4.31767 22.8957 4.4841 23.0548 4.68202 23.1652C4.87994 23.2755 5.10277 23.3334 5.32936 23.3333H24.2712C24.4978 23.3334 24.7206 23.2755 24.9185 23.1652C25.1165 23.0548 25.2829 22.8957 25.402 22.703C25.5212 22.5103 25.589 22.2903 25.5992 22.0639C25.6094 21.8375 25.5615 21.6123 25.4602 21.4097L23.3867 17.2615C23.3027 17.0938 23.2588 16.9089 23.2586 16.7213V12.4583C23.2586 10.215 22.3675 8.06363 20.7812 6.47739C19.195 4.89114 17.0436 4 14.8003 4ZM14.8003 26.9583C14.0503 26.9587 13.3187 26.7265 12.7063 26.2937C12.0938 25.8609 11.6307 25.2487 11.3807 24.5417H18.2199C17.9699 25.2487 17.5067 25.8609 16.8943 26.2937C16.2818 26.7265 15.5502 26.9587 14.8003 26.9583Z" fill="white"/>
</svg>
