<svg width="29" height="29" viewBox="0 0 29 29" fill="none" xmlns="http://www.w3.org/2000/svg">
<path fill-rule="evenodd" clip-rule="evenodd" d="M14.5 2.9C12.4711 2.89963 10.4776 3.43141 8.71844 4.44226C6.9593 5.45311 5.49604 6.90768 4.47473 8.66078C3.45343 10.4139 2.90979 12.4042 2.89808 14.4331C2.88637 16.4619 3.407 18.4584 4.40801 20.2231C5.0846 19.3438 5.95433 18.6319 6.94998 18.1424C7.94563 17.6528 9.04052 17.3988 10.15 17.4H18.85C19.9595 17.3988 21.0544 17.6528 22.05 18.1424C23.0457 18.6319 23.9154 19.3438 24.592 20.2231C25.593 18.4584 26.1136 16.4619 26.1019 14.4331C26.0902 12.4042 25.5466 10.4139 24.5253 8.66078C23.504 6.90768 22.0407 5.45311 20.2816 4.44226C18.5224 3.43141 16.5289 2.89963 14.5 2.9ZM26.0173 23.3102C26.1991 23.0734 26.3731 22.8307 26.5393 22.5823C28.1469 20.1937 29.0038 17.3791 29 14.5C29 6.49165 22.5083 0 14.5 0C6.49166 0 1.48704e-05 6.49165 1.48704e-05 14.5C-0.00455455 17.6853 1.04407 20.7827 2.98266 23.3102L2.97541 23.3363L3.49016 23.9351C4.85009 25.5251 6.53862 26.8012 8.43934 27.6756C10.3401 28.55 12.4078 29.0019 14.5 29C14.8132 29 15.1245 28.9903 15.4338 28.971C18.0502 28.806 20.5721 27.9313 22.7287 26.4407C23.7601 25.7292 24.695 24.887 25.5098 23.9351L26.0246 23.3363L26.0173 23.3102ZM14.5 5.8C13.3463 5.8 12.2399 6.2583 11.4241 7.07408C10.6083 7.88987 10.15 8.99631 10.15 10.15C10.15 11.3037 10.6083 12.4101 11.4241 13.2259C12.2399 14.0417 13.3463 14.5 14.5 14.5C15.6537 14.5 16.7601 14.0417 17.5759 13.2259C18.3917 12.4101 18.85 11.3037 18.85 10.15C18.85 8.99631 18.3917 7.88987 17.5759 7.07408C16.7601 6.2583 15.6537 5.8 14.5 5.8Z" fill="#1F4E20"/>
</svg>
