<svg width="29" height="29" viewBox="0 0 29 29" fill="none" xmlns="http://www.w3.org/2000/svg">
<path fill-rule="evenodd" clip-rule="evenodd" d="M14.5001 2.41602C21.1736 2.41602 26.5834 7.82588 26.5834 14.4993C26.5834 21.1727 21.1736 26.5827 14.5001 26.5827C7.82666 26.5827 2.41675 21.1728 2.41675 14.4993C2.41675 7.82588 7.82666 2.41602 14.5001 2.41602ZM15.711 13.291H13.2944V20.541H15.711V13.291ZM14.5124 8.15558C13.6314 8.15558 12.9923 8.79109 12.9923 9.64925C12.9923 10.5421 13.6145 11.1765 14.5124 11.1765C15.3753 11.1765 16.0132 10.5421 16.0132 9.66602C16.0132 8.79114 15.3753 8.15558 14.5124 8.15558Z" fill="white"/>
</svg>
