<svg width="26" height="26" viewBox="0 0 26 26" fill="none" xmlns="http://www.w3.org/2000/svg">
<path d="M12.0833 0C18.2193 0 23.287 4.57354 24.064 10.4968C22.2043 9.04686 19.8788 8.32668 17.5252 8.47181C15.1716 8.61694 12.9522 9.61737 11.2848 11.2848C9.61737 12.9522 8.61694 15.1716 8.47181 17.5252C8.32668 19.8788 9.04686 22.2043 10.4968 24.064C4.57354 23.287 0 18.2193 0 12.0833C0 5.40971 5.40971 0 12.0833 0ZM12.0833 2.21487C9.28363 2.21487 6.75458 3.38213 4.959 5.25504C5.17288 5.40367 5.35896 5.61271 5.48704 5.90029C5.73354 6.4525 5.73354 7.02163 5.73354 7.5255C5.73354 7.92183 5.73354 8.29883 5.86042 8.57071C6.03442 8.94288 6.786 9.10238 7.44938 9.24013L7.47354 9.24617C7.70313 9.2945 7.93875 9.34283 8.15383 9.40325C8.76525 9.57242 9.23892 10.1222 9.61712 10.5632C9.77421 10.7457 10.0074 11.0152 10.1246 11.0828C10.185 11.0393 10.3796 10.8279 10.475 10.4811C10.55 10.2153 10.5282 9.98083 10.4207 9.85275C9.744 9.05525 9.78146 7.52067 9.9905 6.95396C10.3192 6.061 11.3463 6.12746 12.0978 6.17579H12.1051C12.383 6.19392 12.644 6.21204 12.8398 6.18667C13.4089 6.11417 13.6795 5.44233 13.8487 5.02183C13.9031 4.88771 13.9466 4.77896 13.9865 4.72458C14.3393 4.24125 15.4195 3.51262 16.089 3.06312C14.8285 2.50113 13.4634 2.21206 12.0833 2.21487ZM25.375 18.125C25.375 19.0771 25.1875 20.0198 24.8231 20.8995C24.4588 21.7791 23.9248 22.5783 23.2515 23.2515C22.5783 23.9248 21.7791 24.4588 20.8995 24.8231C20.0198 25.1875 19.0771 25.375 18.125 25.375C17.1729 25.375 16.2302 25.1875 15.3505 24.8231C14.4709 24.4588 13.6717 23.9248 12.9985 23.2515C12.3253 22.5783 11.7912 21.7791 11.4269 20.8995C11.0625 20.0198 10.875 19.0771 10.875 18.125C10.875 16.2022 11.6388 14.3581 12.9985 12.9985C14.3581 11.6388 16.2022 10.875 18.125 10.875C20.0478 10.875 21.8919 11.6388 23.2515 12.9985C24.6112 14.3581 25.375 16.2022 25.375 18.125ZM16.9167 19.3333H21.75V16.9167H19.3333V14.5H16.9167V19.3333Z" fill="white"/>
</svg>
